<svg id="visual" viewBox="0 0 900 600" width="900" height="600" xmlns="http://www.w3.org/2000/svg" xmlns:xlink="http://www.w3.org/1999/xlink" version="1.1"><rect x="0" y="0" width="900" height="600" fill="#f5f8ff"></rect><defs><linearGradient id="grad1_0" x1="33.3%" y1="100%" x2="100%" y2="0%"><stop offset="20%" stop-color="#f5f8ff" stop-opacity="1"></stop><stop offset="80%" stop-color="#f5f8ff" stop-opacity="1"></stop></linearGradient></defs><defs><linearGradient id="grad2_0" x1="0%" y1="100%" x2="66.7%" y2="0%"><stop offset="20%" stop-color="#f5f8ff" stop-opacity="1"></stop><stop offset="80%" stop-color="#f5f8ff" stop-opacity="1"></stop></linearGradient></defs><g transform="translate(900, 600)"><path d="M-486.7 0C-465.1 -60.4 -443.4 -120.7 -414.8 -171.8C-386.3 -222.9 -350.8 -264.8 -314 -314C-277.1 -363.1 -238.8 -419.7 -186.3 -449.7C-133.7 -479.7 -66.9 -483.2 0 -486.7L0 0Z" fill="#14C1F9"></path></g><g transform="translate(0, 0)"><path d="M486.7 0C438.2 49.7 389.6 99.4 363.1 150.4C336.6 201.4 332.2 253.8 308.3 308.3C284.4 362.8 240.9 419.6 186.3 449.7C131.6 479.8 65.8 483.3 0 486.7L0 0Z" fill="#14C1F9"></path></g></svg>