<svg id="visual" viewBox="0 0 900 600" width="900" height="600" xmlns="http://www.w3.org/2000/svg" xmlns:xlink="http://www.w3.org/1999/xlink" version="1.1"><rect x="0" y="0" width="900" height="600" fill="#F5F8FE"></rect><defs><linearGradient id="grad1_0" x1="33.3%" y1="0%" x2="100%" y2="100%"><stop offset="20%" stop-color="#f5f8fe" stop-opacity="1"></stop><stop offset="80%" stop-color="#f5f8fe" stop-opacity="1"></stop></linearGradient></defs><defs><linearGradient id="grad2_0" x1="0%" y1="0%" x2="66.7%" y2="100%"><stop offset="20%" stop-color="#f5f8fe" stop-opacity="1"></stop><stop offset="80%" stop-color="#f5f8fe" stop-opacity="1"></stop></linearGradient></defs><g transform="translate(900, 0)"><path d="M0 432.7C-84 426.2 -168 419.7 -216.3 374.7C-264.7 329.7 -277.3 246.4 -307.4 177.5C-337.5 108.6 -385.1 54.3 -432.7 0L0 0Z" fill="#3302da"></path></g><g transform="translate(0, 600)"><path d="M0 -432.7C83.4 -425.8 166.8 -419 216.3 -374.7C265.8 -330.4 281.4 -248.7 311.8 -180C342.2 -111.3 387.4 -55.7 432.7 0L0 0Z" fill="#3302da"></path></g></svg>