<svg width="44" height="33" viewBox="0 0 44 33" fill="none" xmlns="http://www.w3.org/2000/svg">
<path fill-rule="evenodd" clip-rule="evenodd" d="M0 17V12C0 5.37258 5.37258 0 12 0H14C14.5523 0 15 0.447715 15 1V3.76923C15 4.17282 14.6728 4.5 14.2692 4.5H14C9.30558 4.5 5.5 8.30558 5.5 13H16C18.2091 13 20 14.7909 20 17V29C20 31.2091 18.2091 33 16 33H4C1.79086 33 0 31.2091 0 29V17Z" fill="#D9D9D9"/>
<path fill-rule="evenodd" clip-rule="evenodd" d="M24 17V12C24 5.37258 29.3726 0 36 0H38C38.5523 0 39 0.447715 39 1V3.76923C39 4.17282 38.6728 4.5 38.2692 4.5H38C33.3056 4.5 29.5 8.30558 29.5 13H40C42.2091 13 44 14.7909 44 17V29C44 31.2091 42.2091 33 40 33H28C25.7909 33 24 31.2091 24 29V17Z" fill="#D9D9D9"/>
</svg>