<svg width="113" height="29" viewBox="0 0 113 29" fill="none" xmlns="http://www.w3.org/2000/svg">
<path d="M19.76 23L16 11.64L12.28 23H6.84L0.2 3H6.04L9.84 15.8L13.88 3H18.08L22.16 15.8L25.92 3H31.8L25.2 23H19.76Z" fill="#00C2FF"/>
<path d="M38.0822 23H33.9722V0.499998H38.0822V9.71C39.0022 8.35 40.4322 7.67 42.3722 7.67C44.1722 7.67 45.5822 8.27 46.6022 9.47C47.6422 10.65 48.1622 12.23 48.1622 14.21V23H44.0522V14.9C44.0522 13.8 43.8222 12.95 43.3622 12.35C42.9022 11.73 42.2522 11.42 41.4122 11.42C40.4122 11.42 39.6022 11.78 38.9822 12.5C38.3822 13.22 38.0822 14.28 38.0822 15.68V23ZM53.9712 5.54C53.2712 5.54 52.6612 5.29 52.1412 4.79C51.6212 4.27 51.3612 3.65 51.3612 2.93C51.3612 2.21 51.6212 1.6 52.1412 1.1C52.6612 0.579999 53.2712 0.319999 53.9712 0.319999C54.7112 0.319999 55.3312 0.579999 55.8312 1.1C56.3512 1.6 56.6112 2.21 56.6112 2.93C56.6112 3.65 56.3512 4.27 55.8312 4.79C55.3312 5.29 54.7112 5.54 53.9712 5.54ZM51.9312 23V8H56.0412V23H51.9312ZM59.9878 23V8H64.0978V9.71C65.0178 8.35 66.4478 7.67 68.3878 7.67C70.1878 7.67 71.5978 8.27 72.6178 9.47C73.6578 10.65 74.1778 12.23 74.1778 14.21V23H70.0678V14.9C70.0678 13.8 69.8378 12.95 69.3778 12.35C68.9178 11.73 68.2678 11.42 67.4278 11.42C66.4278 11.42 65.6178 11.78 64.9978 12.5C64.3978 13.22 64.0978 14.28 64.0978 15.68V23H59.9878ZM85.031 23.18C83.351 23.18 81.971 22.72 80.891 21.8C79.831 20.86 79.301 19.51 79.301 17.75V11.6H76.271V8H79.301V3.83H83.411V8H87.641V11.6H83.411V16.94C83.411 17.86 83.611 18.52 84.011 18.92C84.411 19.3 85.061 19.49 85.961 19.49C86.601 19.49 87.161 19.4 87.641 19.22V22.85C86.921 23.07 86.051 23.18 85.031 23.18ZM97.2687 23.33C94.9687 23.33 93.0787 22.59 91.5987 21.11C90.1387 19.63 89.4087 17.75 89.4087 15.47C89.4087 13.23 90.1487 11.37 91.6287 9.89C93.1287 8.41 95.0187 7.67 97.2987 7.67C99.5987 7.67 101.509 8.46 103.029 10.04C104.549 11.6 105.249 13.74 105.129 16.46H93.4287C93.5087 17.4 93.8987 18.19 94.5987 18.83C95.2987 19.45 96.2587 19.76 97.4787 19.76C98.2187 19.76 98.8687 19.62 99.4287 19.34C100.009 19.04 100.419 18.63 100.659 18.11H104.949C104.509 19.65 103.589 20.91 102.189 21.89C100.789 22.85 99.1487 23.33 97.2687 23.33ZM97.1787 11C96.2387 11 95.4487 11.25 94.8087 11.75C94.1887 12.23 93.7787 12.9 93.5787 13.76H100.629C100.409 12.82 99.9687 12.13 99.3087 11.69C98.6687 11.23 97.9587 11 97.1787 11ZM108.123 23V0.499998H112.233V23H108.123Z" fill="black"/>
<line x1="2" y1="27" x2="30" y2="27" stroke="#00C2FF" stroke-width="4"/>
</svg>
