<svg width="63" height="19" viewBox="0 0 63 19" fill="none" xmlns="http://www.w3.org/2000/svg">
<path d="M1 2H25" stroke="#00C2FF" stroke-width="2.5"/>
<path d="M5.9412 18.216C4.4532 18.216 3.2532 17.784 2.3412 16.92C1.4292 16.056 0.949195 15.048 0.901195 13.896H3.7632C3.8592 14.424 4.0992 14.838 4.4832 15.138C4.8792 15.426 5.3652 15.57 5.9412 15.57C6.4332 15.57 6.8292 15.468 7.1292 15.264C7.4412 15.06 7.5972 14.784 7.5972 14.436C7.5972 13.824 7.0392 13.362 5.9232 13.05L4.6812 12.726C3.6132 12.438 2.7732 11.97 2.1612 11.322C1.5492 10.674 1.2372 9.864 1.2252 8.892C1.2252 7.704 1.6212 6.762 2.4132 6.066C3.2172 5.358 4.2852 5.004 5.6172 5.004C6.9612 5.004 8.0532 5.412 8.8932 6.228C9.7332 7.032 10.1772 7.956 10.2252 9H7.3812C7.2492 8.532 7.0212 8.19 6.6972 7.974C6.3732 7.758 6.0132 7.65 5.6172 7.65C5.1732 7.65 4.8132 7.74 4.5372 7.92C4.2612 8.1 4.1172 8.358 4.1052 8.694C4.0932 9.03 4.2132 9.306 4.4652 9.522C4.7292 9.738 5.1252 9.918 5.6532 10.062L7.1112 10.44C8.1792 10.728 9.0072 11.202 9.5952 11.862C10.1952 12.522 10.4952 13.35 10.4952 14.346C10.4952 15.45 10.0752 16.374 9.2352 17.118C8.3952 17.85 7.2972 18.216 5.9412 18.216ZM15.7433 14.31C16.4753 15.066 17.3573 15.444 18.3893 15.444C19.4213 15.444 20.2973 15.066 21.0173 14.31C21.7373 13.554 22.0973 12.654 22.0973 11.61C22.0973 10.566 21.7373 9.666 21.0173 8.91C20.2973 8.154 19.4213 7.776 18.3893 7.776C17.3573 7.776 16.4753 8.154 15.7433 8.91C15.0233 9.666 14.6633 10.566 14.6633 11.61C14.6633 12.654 15.0233 13.554 15.7433 14.31ZM23.0513 16.272C21.7673 17.568 20.2133 18.216 18.3893 18.216C16.5653 18.216 15.0053 17.574 13.7093 16.29C12.4253 14.994 11.7833 13.434 11.7833 11.61C11.7833 9.786 12.4253 8.232 13.7093 6.948C15.0053 5.652 16.5653 5.004 18.3893 5.004C20.2133 5.004 21.7673 5.652 23.0513 6.948C24.3473 8.244 24.9953 9.798 24.9953 11.61C24.9953 13.422 24.3473 14.976 23.0513 16.272Z" fill="#14C1F9"/>
<path d="M32.9821 18.216C31.0501 18.216 29.4481 17.58 28.1761 16.308C26.9041 15.036 26.2681 13.47 26.2681 11.61C26.2681 9.75 26.9041 8.184 28.1761 6.912C29.4481 5.64 31.0501 5.004 32.9821 5.004C34.4101 5.004 35.7121 5.43 36.8881 6.282C38.0761 7.122 38.8441 8.232 39.1921 9.612H36.0781C35.8021 9.024 35.3821 8.574 34.8181 8.262C34.2541 7.938 33.6421 7.776 32.9821 7.776C31.8301 7.776 30.9001 8.142 30.1921 8.874C29.4961 9.606 29.1481 10.518 29.1481 11.61C29.1481 12.702 29.4961 13.614 30.1921 14.346C30.9001 15.078 31.8301 15.444 32.9821 15.444C33.6421 15.444 34.2541 15.288 34.8181 14.976C35.3821 14.652 35.8021 14.196 36.0781 13.608H39.1921C38.8441 14.988 38.0761 16.104 36.8881 16.956C35.7121 17.796 34.4101 18.216 32.9821 18.216ZM39.2252 18L44.6972 5.22H47.2892L52.7612 18H49.7732L48.6392 15.3H43.3472L42.2132 18H39.2252ZM45.9932 8.982L44.3732 12.816H47.5952L45.9932 8.982ZM54.0932 18V5.22H56.9552V15.264H62.2472V18H54.0932Z" fill="black"/>
</svg>
