<svg width="40" height="40" viewBox="0 0 40 40" fill="none" xmlns="http://www.w3.org/2000/svg">
<path fill-rule="evenodd" clip-rule="evenodd" d="M20 40C31.0457 40 40 31.0457 40 20C40 8.9543 31.0457 0 20 0C8.9543 0 0 8.9543 0 20C0 31.0457 8.9543 40 20 40ZM30.7588 15.7767C31.74 14.8054 31.7481 13.2225 30.7767 12.2412C29.8054 11.26 28.2225 11.2519 27.2412 12.2233L16.8776 22.4823L12.7588 18.4051C11.7775 17.4338 10.1946 17.4418 9.22328 18.423C8.25194 19.4043 8.25998 20.9872 9.24123 21.9585L15.1188 27.7767L16.8776 29.5177L18.6363 27.7767L30.7588 15.7767Z" fill="white"/>
</svg>
