<svg width="131" height="76" viewBox="0 0 131 76" fill="none" xmlns="http://www.w3.org/2000/svg">
<rect width="131" height="76" fill="white"/>
<path fill-rule="evenodd" clip-rule="evenodd" d="M9.16207 7.77173C8.79501 8.32181 8.3218 8.79502 7.77172 9.16208C6.94371 9.85358 6.94371 11.1464 7.77172 11.8379C8.3218 12.205 8.79501 12.6782 9.16207 13.2283C9.85358 14.0563 11.1464 14.0563 11.8379 13.2283C12.205 12.6782 12.6782 12.205 13.2283 11.8379C14.0563 11.1464 14.0563 9.85358 13.2283 9.16207C12.6782 8.79501 12.205 8.32181 11.8379 7.77173C11.1464 6.94371 9.85358 6.94371 9.16207 7.77173ZM0 5C0 6.73617 0.884893 8.26566 2.22827 9.16207C3.05629 9.85358 3.05629 11.1464 2.22827 11.8379C0.884893 12.7343 0 14.2638 0 16C0 17.7362 0.884893 19.2657 2.22827 20.1621C3.05629 20.8536 3.05629 22.1464 2.22827 22.8379C0.884892 23.7343 0 25.2638 0 27C0 28.7362 0.884893 30.2657 2.22827 31.1621C3.05629 31.8536 3.05629 33.1464 2.22827 33.8379C0.884893 34.7343 0 36.2638 0 38C0 39.7362 0.884893 41.2657 2.22827 42.1621C3.05628 42.8536 3.05629 44.1464 2.22828 44.8379C0.884893 45.7343 0 47.2638 0 49C0 50.7362 0.884893 52.2657 2.22827 53.1621C3.05629 53.8536 3.05629 55.1464 2.22827 55.8379C0.884893 56.7343 0 58.2638 0 60C0 61.7362 0.884893 63.2657 2.22827 64.1621C3.05629 64.8536 3.05629 66.1464 2.22828 66.8379C0.884893 67.7343 0 69.2638 0 71C0 73.7614 2.23858 76 5 76C6.73617 76 8.26566 75.1151 9.16207 73.7717C9.85358 72.9437 11.1464 72.9437 11.8379 73.7717C12.7343 75.1151 14.2638 76 16 76C17.7362 76 19.2657 75.1151 20.1621 73.7717C20.8536 72.9437 22.1464 72.9437 22.8379 73.7717C23.7343 75.1151 25.2638 76 27 76C28.7362 76 30.2657 75.1151 31.1621 73.7717C31.8536 72.9437 33.1464 72.9437 33.8379 73.7717C34.7343 75.1151 36.2638 76 38 76C39.7362 76 41.2657 75.1151 42.1621 73.7717C42.8536 72.9437 44.1464 72.9437 44.8379 73.7717C45.7343 75.1151 47.2638 76 49 76C50.7362 76 52.2657 75.1151 53.1621 73.7717C53.8536 72.9437 55.1464 72.9437 55.8379 73.7717C56.7343 75.1151 58.2638 76 60 76C61.7362 76 63.2657 75.1151 64.1621 73.7717C64.8536 72.9437 66.1464 72.9437 66.8379 73.7717C67.7343 75.1151 69.2638 76 71 76C72.7362 76 74.2657 75.1151 75.1621 73.7717C75.8536 72.9437 77.1464 72.9437 77.8379 73.7717C78.7343 75.1151 80.2638 76 82 76C83.7362 76 85.2657 75.1151 86.1621 73.7717C86.8536 72.9437 88.1464 72.9437 88.8379 73.7717C89.7343 75.1151 91.2638 76 93 76C94.7362 76 96.2657 75.1151 97.1621 73.7717C97.8536 72.9437 99.1464 72.9437 99.8379 73.7717C100.734 75.1151 102.264 76 104 76C105.736 76 107.266 75.1151 108.162 73.7717C108.854 72.9437 110.146 72.9437 110.838 73.7717C111.734 75.1151 113.264 76 115 76C116.736 76 118.266 75.1151 119.162 73.7717C119.854 72.9437 121.146 72.9437 121.838 73.7717C122.734 75.1151 124.264 76 126 76C128.761 76 131 73.7614 131 71C131 69.2638 130.115 67.7343 128.772 66.8379C127.944 66.1464 127.944 64.8536 128.772 64.1621C130.115 63.2657 131 61.7362 131 60C131 58.2638 130.115 56.7343 128.772 55.8379C127.944 55.1464 127.944 53.8536 128.772 53.1621C130.115 52.2657 131 50.7362 131 49C131 47.2638 130.115 45.7343 128.772 44.8379C127.944 44.1464 127.944 42.8536 128.772 42.1621C130.115 41.2657 131 39.7362 131 38C131 36.2638 130.115 34.7343 128.772 33.8379C127.944 33.1464 127.944 31.8536 128.772 31.1621C130.115 30.2657 131 28.7362 131 27C131 25.2638 130.115 23.7343 128.772 22.8379C127.944 22.1464 127.944 20.8536 128.772 20.1621C130.115 19.2657 131 17.7362 131 16C131 14.2638 130.115 12.7343 128.772 11.8379C127.944 11.1464 127.944 9.85358 128.772 9.16207C130.115 8.26566 131 6.73617 131 5C131 2.23858 128.761 0 126 0C124.264 0 122.734 0.884893 121.838 2.22827C121.146 3.05629 119.854 3.05629 119.162 2.22827C118.266 0.884893 116.736 0 115 0C113.264 0 111.734 0.884893 110.838 2.22828C110.146 3.05629 108.854 3.05629 108.162 2.22827C107.266 0.884893 105.736 0 104 0C102.264 0 100.734 0.884893 99.8379 2.22827C99.1464 3.05629 97.8536 3.05629 97.1621 2.22827C96.2657 0.884893 94.7362 0 93 0C91.2638 0 89.7343 0.884893 88.8379 2.22828C88.1464 3.05629 86.8536 3.05629 86.1621 2.22827C85.2657 0.884893 83.7362 0 82 0C80.2638 0 78.7343 0.884893 77.8379 2.22827C77.1464 3.05629 75.8536 3.05629 75.1621 2.22827C74.2657 0.884893 72.7362 0 71 0C69.2638 0 67.7343 0.884893 66.8379 2.22828C66.1464 3.05629 64.8536 3.05629 64.1621 2.22827C63.2657 0.884893 61.7362 0 60 0C58.2638 0 56.7343 0.884893 55.8379 2.22827C55.1464 3.05629 53.8536 3.05629 53.1621 2.22827C52.2657 0.884893 50.7362 0 49 0C47.2638 0 45.7343 0.884893 44.8379 2.22828C44.1464 3.05629 42.8536 3.05628 42.1621 2.22827C41.2657 0.884893 39.7362 0 38 0C36.2638 0 34.7343 0.884893 33.8379 2.22827C33.1464 3.05629 31.8536 3.05629 31.1621 2.22827C30.2657 0.884893 28.7362 0 27 0C25.2638 0 23.7343 0.884892 22.8379 2.22827C22.1464 3.05629 20.8536 3.05629 20.1621 2.22827C19.2657 0.884893 17.7362 0 16 0C14.2638 0 12.7343 0.884893 11.8379 2.22827C11.1464 3.05629 9.85358 3.05629 9.16207 2.22827C8.26566 0.884893 6.73617 0 5 0C2.23858 0 0 2.23858 0 5ZM112.228 66.8379C111.678 67.205 111.205 67.6782 110.838 68.2283C110.146 69.0563 108.854 69.0563 108.162 68.2283C107.795 67.6782 107.322 67.205 106.772 66.8379C105.944 66.1464 105.944 64.8536 106.772 64.1621C107.322 63.795 107.795 63.3218 108.162 62.7717C108.854 61.9437 110.146 61.9437 110.838 62.7718C111.205 63.3218 111.678 63.795 112.228 64.1621C113.056 64.8536 113.056 66.1464 112.228 66.8379ZM119.162 68.2283C118.795 67.6782 118.322 67.205 117.772 66.8379C116.944 66.1464 116.944 64.8536 117.772 64.1621C118.322 63.795 118.795 63.3218 119.162 62.7717C119.854 61.9437 121.146 61.9437 121.838 62.7717C122.205 63.3218 122.678 63.795 123.228 64.1621C124.056 64.8536 124.056 66.1464 123.228 66.8379C122.678 67.205 122.205 67.6782 121.838 68.2283C121.146 69.0563 119.854 69.0563 119.162 68.2283ZM101.228 66.8379C102.056 66.1464 102.056 64.8536 101.228 64.1621C100.678 63.795 100.205 63.3218 99.8379 62.7717C99.1464 61.9437 97.8536 61.9437 97.1621 62.7717C96.795 63.3218 96.3218 63.795 95.7717 64.1621C94.9437 64.8536 94.9437 66.1464 95.7717 66.8379C96.3218 67.205 96.795 67.6782 97.1621 68.2283C97.8536 69.0563 99.1464 69.0563 99.8379 68.2283C100.205 67.6782 100.678 67.205 101.228 66.8379ZM90.2283 66.8379C91.0563 66.1464 91.0563 64.8536 90.2283 64.1621C89.6782 63.795 89.205 63.3218 88.838 62.7718C88.1464 61.9437 86.8536 61.9437 86.1621 62.7717C85.795 63.3218 85.3218 63.795 84.7717 64.1621C83.9437 64.8536 83.9437 66.1464 84.7717 66.8379C85.3218 67.205 85.795 67.6782 86.1621 68.2283C86.8536 69.0563 88.1464 69.0563 88.8379 68.2283C89.205 67.6782 89.6782 67.205 90.2283 66.8379ZM68.2283 66.8379C67.6782 67.205 67.205 67.6782 66.8379 68.2283C66.1464 69.0563 64.8536 69.0563 64.1621 68.2283C63.795 67.6782 63.3218 67.205 62.7717 66.8379C61.9437 66.1464 61.9437 64.8536 62.7717 64.1621C63.3218 63.795 63.795 63.3218 64.1621 62.7717C64.8536 61.9437 66.1464 61.9437 66.838 62.7718C67.205 63.3218 67.6782 63.795 68.2283 64.1621C69.0563 64.8536 69.0563 66.1464 68.2283 66.8379ZM75.1621 68.2283C74.795 67.6782 74.3218 67.205 73.7717 66.8379C72.9437 66.1464 72.9437 64.8536 73.7717 64.1621C74.3218 63.795 74.795 63.3218 75.1621 62.7717C75.8536 61.9437 77.1464 61.9437 77.8379 62.7717C78.205 63.3218 78.6782 63.795 79.2283 64.1621C80.0563 64.8536 80.0563 66.1464 79.2283 66.8379C78.6782 67.205 78.205 67.6782 77.8379 68.2283C77.1464 69.0563 75.8536 69.0563 75.1621 68.2283ZM123.228 44.8379C124.056 44.1464 124.056 42.8536 123.228 42.1621C122.678 41.795 122.205 41.3218 121.838 40.7717C121.146 39.9437 119.854 39.9437 119.162 40.7717C118.795 41.3218 118.322 41.795 117.772 42.1621C116.944 42.8536 116.944 44.1464 117.772 44.8379C118.322 45.205 118.795 45.6782 119.162 46.2283C119.854 47.0563 121.146 47.0563 121.838 46.2283C122.205 45.6782 122.678 45.205 123.228 44.8379ZM112.228 44.8379C113.056 44.1464 113.056 42.8536 112.228 42.1621C111.678 41.795 111.205 41.3218 110.838 40.7718C110.146 39.9437 108.854 39.9437 108.162 40.7717C107.795 41.3218 107.322 41.795 106.772 42.1621C105.944 42.8536 105.944 44.1464 106.772 44.8379C107.322 45.205 107.795 45.6782 108.162 46.2283C108.854 47.0563 110.146 47.0563 110.838 46.2283C111.205 45.6782 111.678 45.205 112.228 44.8379ZM110.838 51.7717C110.146 50.9437 108.854 50.9437 108.162 51.7717C107.795 52.3218 107.322 52.795 106.772 53.1621C105.944 53.8536 105.944 55.1464 106.772 55.8379C107.322 56.205 107.795 56.6782 108.162 57.2283C108.854 58.0563 110.146 58.0563 110.838 57.2283C111.205 56.6782 111.678 56.205 112.228 55.8379C113.056 55.1464 113.056 53.8536 112.228 53.1621C111.678 52.795 111.205 52.3218 110.838 51.7717ZM90.2283 55.8379C89.6782 56.205 89.205 56.6782 88.8379 57.2283C88.1464 58.0563 86.8536 58.0563 86.1621 57.2283C85.795 56.6782 85.3218 56.205 84.7717 55.8379C83.9437 55.1464 83.9437 53.8536 84.7717 53.1621C85.3218 52.795 85.795 52.3218 86.1621 51.7717C86.8536 50.9437 88.1464 50.9437 88.8379 51.7717C89.205 52.3218 89.6782 52.795 90.2283 53.1621C91.0563 53.8536 91.0563 55.1464 90.2283 55.8379ZM90.2283 44.8379C89.6782 45.205 89.205 45.6782 88.8379 46.2283C88.1464 47.0563 86.8536 47.0563 86.1621 46.2283C85.795 45.6782 85.3218 45.205 84.7717 44.8379C83.9437 44.1464 83.9437 42.8536 84.7717 42.1621C85.3218 41.795 85.795 41.3218 86.1621 40.7717C86.8536 39.9437 88.1464 39.9437 88.838 40.7718C89.205 41.3218 89.6782 41.795 90.2283 42.1621C91.0563 42.8536 91.0563 44.1464 90.2283 44.8379ZM97.1621 46.2283C96.795 45.6782 96.3218 45.205 95.7717 44.8379C94.9437 44.1464 94.9437 42.8536 95.7717 42.1621C96.3218 41.795 96.795 41.3218 97.1621 40.7717C97.8536 39.9437 99.1464 39.9437 99.8379 40.7717C100.205 41.3218 100.678 41.795 101.228 42.1621C102.056 42.8536 102.056 44.1464 101.228 44.8379C100.678 45.205 100.205 45.6782 99.8379 46.2283C99.1464 47.0563 97.8536 47.0563 97.1621 46.2283ZM79.2283 44.8379C80.0563 44.1464 80.0563 42.8536 79.2283 42.1621C78.6782 41.795 78.205 41.3218 77.8379 40.7717C77.1464 39.9437 75.8536 39.9437 75.1621 40.7717C74.795 41.3218 74.3218 41.795 73.7717 42.1621C72.9437 42.8536 72.9437 44.1464 73.7717 44.8379C74.3218 45.205 74.795 45.6782 75.1621 46.2283C75.8536 47.0563 77.1464 47.0563 77.8379 46.2283C78.205 45.6782 78.6782 45.205 79.2283 44.8379ZM68.2283 44.8379C69.0563 44.1464 69.0563 42.8536 68.2283 42.1621C67.6782 41.795 67.205 41.3218 66.8379 40.7717C66.1464 39.9437 64.8536 39.9437 64.1621 40.7717C63.795 41.3218 63.3218 41.795 62.7717 42.1621C61.9437 42.8536 61.9437 44.1464 62.7717 44.8379C63.3218 45.205 63.795 45.6782 64.1621 46.2283C64.8536 47.0563 66.1464 47.0563 66.8379 46.2283C67.205 45.6782 67.6782 45.205 68.2283 44.8379ZM57.2283 44.8379C58.0563 44.1464 58.0563 42.8536 57.2283 42.1621C56.6782 41.795 56.205 41.3218 55.8379 40.7717C55.1464 39.9437 53.8536 39.9437 53.1621 40.7717C52.795 41.3218 52.3218 41.795 51.7717 42.1621C50.9437 42.8536 50.9437 44.1464 51.7717 44.8379C52.3218 45.205 52.795 45.6782 53.1621 46.2283C53.8536 47.0563 55.1464 47.0563 55.8379 46.2283C56.205 45.6782 56.6782 45.205 57.2283 44.8379ZM46.2283 44.8379C47.0563 44.1464 47.0563 42.8536 46.2283 42.1621C45.6782 41.795 45.205 41.3218 44.8379 40.7717C44.1464 39.9437 42.8536 39.9437 42.1621 40.7717C41.795 41.3218 41.3218 41.795 40.7717 42.1621C39.9437 42.8536 39.9437 44.1464 40.7717 44.8379C41.3218 45.205 41.795 45.6782 42.1621 46.2283C42.8536 47.0563 44.1464 47.0563 44.8379 46.2283C45.205 45.6782 45.6782 45.205 46.2283 44.8379ZM44.8379 35.2283C45.205 34.6782 45.6782 34.205 46.2283 33.8379C47.0563 33.1464 47.0563 31.8536 46.2283 31.1621C45.6782 30.795 45.205 30.3218 44.8379 29.7717C44.1464 28.9437 42.8536 28.9437 42.1621 29.7717C41.795 30.3218 41.3218 30.795 40.7717 31.1621C39.9437 31.8536 39.9437 33.1464 40.7717 33.8379C41.3218 34.205 41.795 34.6782 42.1621 35.2283C42.8536 36.0563 44.1464 36.0563 44.8379 35.2283ZM44.8379 24.2283C45.205 23.6782 45.6782 23.205 46.2283 22.8379C47.0563 22.1464 47.0563 20.8536 46.2283 20.1621C45.6782 19.795 45.205 19.3218 44.8379 18.7717C44.1464 17.9437 42.8536 17.9437 42.1621 18.7717C41.795 19.3218 41.3218 19.795 40.7717 20.1621C39.9437 20.8536 39.9437 22.1464 40.7717 22.8379C41.3218 23.205 41.795 23.6782 42.1621 24.2283C42.8536 25.0563 44.1464 25.0563 44.8379 24.2283ZM51.7717 22.8379C52.3218 23.205 52.795 23.6782 53.1621 24.2283C53.8536 25.0563 55.1464 25.0563 55.8379 24.2283C56.205 23.6782 56.6782 23.205 57.2283 22.8379C58.0563 22.1464 58.0563 20.8536 57.2283 20.1621C56.6782 19.795 56.205 19.3218 55.8379 18.7717C55.1464 17.9437 53.8536 17.9437 53.1621 18.7717C52.795 19.3218 52.3218 19.795 51.7717 20.1621C50.9437 20.8536 50.9437 22.1464 51.7717 22.8379ZM62.7717 22.8379C63.3218 23.205 63.795 23.6782 64.1621 24.2283C64.8536 25.0563 66.1464 25.0563 66.8379 24.2283C67.205 23.6782 67.6782 23.205 68.2283 22.8379C69.0563 22.1464 69.0563 20.8536 68.2283 20.1621C67.6782 19.795 67.205 19.3218 66.8379 18.7717C66.1464 17.9437 64.8536 17.9437 64.1621 18.7717C63.795 19.3218 63.3218 19.795 62.7717 20.1621C61.9437 20.8536 61.9437 22.1464 62.7717 22.8379ZM66.8379 29.7717C66.1464 28.9437 64.8536 28.9437 64.1621 29.7717C63.795 30.3218 63.3218 30.795 62.7717 31.1621C61.9437 31.8536 61.9437 33.1464 62.7717 33.8379C63.3218 34.205 63.795 34.6782 64.1621 35.2283C64.8536 36.0563 66.1464 36.0563 66.8379 35.2283C67.205 34.6782 67.6782 34.205 68.2283 33.8379C69.0563 33.1464 69.0563 31.8536 68.2283 31.1621C67.6782 30.795 67.205 30.3218 66.8379 29.7717ZM66.8379 51.7717C66.1464 50.9437 64.8536 50.9437 64.1621 51.7717C63.795 52.3218 63.3218 52.795 62.7717 53.1621C61.9437 53.8536 61.9437 55.1464 62.7717 55.8379C63.3218 56.205 63.795 56.6782 64.1621 57.2283C64.8536 58.0563 66.1464 58.0563 66.8379 57.2283C67.205 56.6782 67.6782 56.205 68.2283 55.8379C69.0563 55.1464 69.0563 53.8536 68.2283 53.1621C67.6782 52.795 67.205 52.3218 66.8379 51.7717ZM112.228 33.8379C111.678 34.205 111.205 34.6782 110.838 35.2283C110.146 36.0563 108.854 36.0563 108.162 35.2283C107.795 34.6782 107.322 34.205 106.772 33.8379C105.944 33.1464 105.944 31.8536 106.772 31.1621C107.322 30.795 107.795 30.3218 108.162 29.7717C108.854 28.9437 110.146 28.9437 110.838 29.7717C111.205 30.3218 111.678 30.795 112.228 31.1621C113.056 31.8536 113.056 33.1464 112.228 33.8379ZM112.228 22.8379C111.678 23.205 111.205 23.6782 110.838 24.2283C110.146 25.0563 108.854 25.0563 108.162 24.2283C107.795 23.6782 107.322 23.205 106.772 22.8379C105.944 22.1464 105.944 20.8536 106.772 20.1621C107.322 19.795 107.795 19.3218 108.162 18.7717C108.854 17.9437 110.146 17.9437 110.838 18.7717C111.205 19.3218 111.678 19.795 112.228 20.1621C113.056 20.8536 113.056 22.1464 112.228 22.8379ZM119.162 24.2283C118.795 23.6782 118.322 23.205 117.772 22.8379C116.944 22.1464 116.944 20.8536 117.772 20.1621C118.322 19.795 118.795 19.3218 119.162 18.7717C119.854 17.9437 121.146 17.9437 121.838 18.7717C122.205 19.3218 122.678 19.795 123.228 20.1621C124.056 20.8536 124.056 22.1464 123.228 22.8379C122.678 23.205 122.205 23.6782 121.838 24.2283C121.146 25.0563 119.854 25.0563 119.162 24.2283ZM101.228 22.8379C102.056 22.1464 102.056 20.8536 101.228 20.1621C100.678 19.795 100.205 19.3218 99.8379 18.7717C99.1464 17.9437 97.8536 17.9437 97.1621 18.7717C96.795 19.3218 96.3218 19.795 95.7717 20.1621C94.9437 20.8536 94.9437 22.1464 95.7717 22.8379C96.3218 23.205 96.795 23.6782 97.1621 24.2283C97.8536 25.0563 99.1464 25.0563 99.8379 24.2283C100.205 23.6782 100.678 23.205 101.228 22.8379ZM90.2283 22.8379C91.0563 22.1464 91.0563 20.8536 90.2283 20.1621C89.6782 19.795 89.205 19.3218 88.8379 18.7717C88.1464 17.9437 86.8536 17.9437 86.1621 18.7717C85.795 19.3218 85.3218 19.795 84.7717 20.1621C83.9437 20.8536 83.9437 22.1464 84.7717 22.8379C85.3218 23.205 85.795 23.6782 86.1621 24.2283C86.8536 25.0563 88.1464 25.0563 88.8379 24.2283C89.205 23.6782 89.6782 23.205 90.2283 22.8379ZM88.8379 29.7717C88.1464 28.9437 86.8536 28.9437 86.1621 29.7717C85.795 30.3218 85.3218 30.795 84.7717 31.1621C83.9437 31.8536 83.9437 33.1464 84.7717 33.8379C85.3218 34.205 85.795 34.6782 86.1621 35.2283C86.8536 36.0563 88.1464 36.0563 88.8379 35.2283C89.205 34.6782 89.6782 34.205 90.2283 33.8379C91.0563 33.1464 91.0563 31.8536 90.2283 31.1621C89.6782 30.795 89.205 30.3218 88.8379 29.7717ZM75.1621 24.2283C74.795 23.6782 74.3218 23.205 73.7717 22.8379C72.9437 22.1464 72.9437 20.8536 73.7717 20.1621C74.3218 19.795 74.795 19.3218 75.1621 18.7717C75.8536 17.9437 77.1464 17.9437 77.8379 18.7717C78.205 19.3218 78.6782 19.795 79.2283 20.1621C80.0563 20.8536 80.0563 22.1464 79.2283 22.8379C78.6782 23.205 78.205 23.6782 77.8379 24.2283C77.1464 25.0563 75.8536 25.0563 75.1621 24.2283ZM110.838 7.77174C110.146 6.94371 108.854 6.94371 108.162 7.77173C107.795 8.32181 107.322 8.79501 106.772 9.16207C105.944 9.85358 105.944 11.1464 106.772 11.8379C107.322 12.205 107.795 12.6782 108.162 13.2283C108.854 14.0563 110.146 14.0563 110.838 13.2283C111.205 12.6782 111.678 12.205 112.228 11.8379C113.056 11.1464 113.056 9.85358 112.228 9.16207C111.678 8.79501 111.205 8.32182 110.838 7.77174ZM90.2283 11.8379C89.6782 12.205 89.205 12.6782 88.8379 13.2283C88.1464 14.0563 86.8536 14.0563 86.1621 13.2283C85.795 12.6782 85.3218 12.205 84.7717 11.8379C83.9437 11.1464 83.9437 9.85358 84.7717 9.16207C85.3218 8.79501 85.795 8.32181 86.1621 7.77173C86.8536 6.94371 88.1464 6.94371 88.8379 7.77174C89.205 8.32182 89.6782 8.79501 90.2283 9.16207C91.0563 9.85358 91.0563 11.1464 90.2283 11.8379ZM66.8379 7.77174C66.1464 6.94371 64.8536 6.94371 64.1621 7.77173C63.795 8.32181 63.3218 8.79501 62.7717 9.16207C61.9437 9.85358 61.9437 11.1464 62.7717 11.8379C63.3218 12.205 63.795 12.6782 64.1621 13.2283C64.8536 14.0563 66.1464 14.0563 66.8379 13.2283C67.205 12.6782 67.6782 12.205 68.2283 11.8379C69.0563 11.1464 69.0563 9.85358 68.2283 9.16207C67.6782 8.79501 67.205 8.32182 66.8379 7.77174ZM46.2283 66.8379C45.6782 67.205 45.205 67.6782 44.8379 68.2283C44.1464 69.0563 42.8536 69.0563 42.1621 68.2283C41.795 67.6782 41.3218 67.205 40.7717 66.8379C39.9437 66.1464 39.9437 64.8536 40.7717 64.1621C41.3218 63.795 41.795 63.3218 42.1621 62.7717C42.8536 61.9437 44.1464 61.9437 44.8379 62.7717C45.205 63.3218 45.6782 63.795 46.2283 64.1621C47.0563 64.8536 47.0563 66.1464 46.2283 66.8379ZM53.1621 68.2283C52.795 67.6782 52.3218 67.205 51.7717 66.8379C50.9437 66.1464 50.9437 64.8536 51.7717 64.1621C52.3218 63.795 52.795 63.3218 53.1621 62.7717C53.8536 61.9437 55.1464 61.9437 55.8379 62.7717C56.205 63.3218 56.6782 63.795 57.2283 64.1621C58.0563 64.8536 58.0563 66.1464 57.2283 66.8379C56.6782 67.205 56.205 67.6782 55.8379 68.2283C55.1464 69.0563 53.8536 69.0563 53.1621 68.2283ZM35.2283 66.8379C36.0563 66.1464 36.0563 64.8536 35.2283 64.1621C34.6782 63.795 34.205 63.3218 33.8379 62.7717C33.1464 61.9437 31.8536 61.9437 31.1621 62.7717C30.795 63.3218 30.3218 63.795 29.7717 64.1621C28.9437 64.8536 28.9437 66.1464 29.7717 66.8379C30.3218 67.205 30.795 67.6782 31.1621 68.2283C31.8536 69.0563 33.1464 69.0563 33.8379 68.2283C34.205 67.6782 34.6782 67.205 35.2283 66.8379ZM24.2283 66.8379C25.0563 66.1464 25.0563 64.8536 24.2283 64.1621C23.6782 63.795 23.205 63.3218 22.8379 62.7717C22.1464 61.9437 20.8536 61.9437 20.1621 62.7717C19.795 63.3218 19.3218 63.795 18.7717 64.1621C17.9437 64.8536 17.9437 66.1464 18.7717 66.8379C19.3218 67.205 19.795 67.6782 20.1621 68.2283C20.8536 69.0563 22.1464 69.0563 22.8379 68.2283C23.205 67.6782 23.6782 67.205 24.2283 66.8379ZM9.16207 68.2283C8.79501 67.6782 8.32182 67.205 7.77174 66.8379C6.94371 66.1464 6.9437 64.8536 7.77173 64.1621C8.32181 63.795 8.79501 63.3218 9.16207 62.7717C9.85358 61.9437 11.1464 61.9437 11.8379 62.7717C12.205 63.3218 12.6782 63.795 13.2283 64.1621C14.0563 64.8536 14.0563 66.1464 13.2283 66.8379C12.6782 67.205 12.205 67.6782 11.8379 68.2283C11.1464 69.0563 9.85358 69.0563 9.16207 68.2283ZM44.8379 51.7717C44.1464 50.9437 42.8536 50.9437 42.1621 51.7717C41.795 52.3218 41.3218 52.795 40.7717 53.1621C39.9437 53.8536 39.9437 55.1464 40.7717 55.8379C41.3218 56.205 41.795 56.6782 42.1621 57.2283C42.8536 58.0563 44.1464 58.0563 44.8379 57.2283C45.205 56.6782 45.6782 56.205 46.2283 55.8379C47.0563 55.1464 47.0563 53.8536 46.2283 53.1621C45.6782 52.795 45.205 52.3218 44.8379 51.7717ZM24.2283 55.8379C23.6782 56.205 23.205 56.6782 22.8379 57.2283C22.1464 58.0563 20.8536 58.0563 20.1621 57.2283C19.795 56.6782 19.3218 56.205 18.7717 55.8379C17.9437 55.1464 17.9437 53.8536 18.7717 53.1621C19.3218 52.795 19.795 52.3218 20.1621 51.7717C20.8536 50.9437 22.1464 50.9437 22.8379 51.7717C23.205 52.3218 23.6782 52.795 24.2283 53.1621C25.0563 53.8536 25.0563 55.1464 24.2283 55.8379ZM24.2283 44.8379C23.6782 45.205 23.205 45.6782 22.8379 46.2283C22.1464 47.0563 20.8536 47.0563 20.1621 46.2283C19.795 45.6782 19.3218 45.205 18.7717 44.8379C17.9437 44.1464 17.9437 42.8536 18.7717 42.1621C19.3218 41.795 19.795 41.3218 20.1621 40.7717C20.8536 39.9437 22.1464 39.9437 22.8379 40.7717C23.205 41.3218 23.6782 41.795 24.2283 42.1621C25.0563 42.8536 25.0563 44.1464 24.2283 44.8379ZM31.1621 46.2283C30.795 45.6782 30.3218 45.205 29.7717 44.8379C28.9437 44.1464 28.9437 42.8536 29.7717 42.1621C30.3218 41.795 30.795 41.3218 31.1621 40.7717C31.8536 39.9437 33.1464 39.9437 33.8379 40.7717C34.205 41.3218 34.6782 41.795 35.2283 42.1621C36.0563 42.8536 36.0563 44.1464 35.2283 44.8379C34.6782 45.205 34.205 45.6782 33.8379 46.2283C33.1464 47.0563 31.8536 47.0563 31.1621 46.2283ZM13.2283 44.8379C14.0563 44.1464 14.0563 42.8536 13.2283 42.1621C12.6782 41.795 12.205 41.3218 11.8379 40.7717C11.1464 39.9437 9.85358 39.9437 9.16207 40.7717C8.79501 41.3218 8.32181 41.795 7.77173 42.1621C6.9437 42.8536 6.94371 44.1464 7.77173 44.8379C8.32182 45.205 8.79501 45.6782 9.16207 46.2283C9.85358 47.0563 11.1464 47.0563 11.8379 46.2283C12.205 45.6782 12.6782 45.205 13.2283 44.8379ZM24.2283 33.8379C23.6782 34.205 23.205 34.6782 22.8379 35.2283C22.1464 36.0563 20.8536 36.0563 20.1621 35.2283C19.795 34.6782 19.3218 34.205 18.7717 33.8379C17.9437 33.1464 17.9437 31.8536 18.7717 31.1621C19.3218 30.795 19.795 30.3218 20.1621 29.7717C20.8536 28.9437 22.1464 28.9437 22.8379 29.7717C23.205 30.3218 23.6782 30.795 24.2283 31.1621C25.0563 31.8536 25.0563 33.1464 24.2283 33.8379ZM24.2283 22.8379C23.6782 23.205 23.205 23.6782 22.8379 24.2283C22.1464 25.0563 20.8536 25.0563 20.1621 24.2283C19.795 23.6782 19.3218 23.205 18.7717 22.8379C17.9437 22.1464 17.9437 20.8536 18.7717 20.1621C19.3218 19.795 19.795 19.3218 20.1621 18.7717C20.8536 17.9437 22.1464 17.9437 22.8379 18.7717C23.205 19.3218 23.6782 19.795 24.2283 20.1621C25.0563 20.8536 25.0563 22.1464 24.2283 22.8379ZM31.1621 24.2283C30.795 23.6782 30.3218 23.205 29.7717 22.8379C28.9437 22.1464 28.9437 20.8536 29.7717 20.1621C30.3218 19.795 30.795 19.3218 31.1621 18.7717C31.8536 17.9437 33.1464 17.9437 33.8379 18.7717C34.205 19.3218 34.6782 19.795 35.2283 20.1621C36.0563 20.8536 36.0563 22.1464 35.2283 22.8379C34.6782 23.205 34.205 23.6782 33.8379 24.2283C33.1464 25.0563 31.8536 25.0563 31.1621 24.2283ZM13.2283 22.8379C14.0563 22.1464 14.0563 20.8536 13.2283 20.1621C12.6782 19.795 12.205 19.3218 11.8379 18.7717C11.1464 17.9437 9.85358 17.9437 9.16207 18.7717C8.79501 19.3218 8.32181 19.795 7.77173 20.1621C6.94371 20.8536 6.94371 22.1464 7.77172 22.8379C8.3218 23.205 8.79501 23.6782 9.16207 24.2283C9.85358 25.0563 11.1464 25.0563 11.8379 24.2283C12.205 23.6782 12.6782 23.205 13.2283 22.8379ZM46.2283 11.8379C45.6782 12.205 45.205 12.6782 44.8379 13.2283C44.1464 14.0563 42.8536 14.0563 42.1621 13.2283C41.795 12.6782 41.3218 12.205 40.7717 11.8379C39.9437 11.1464 39.9437 9.85358 40.7717 9.16207C41.3218 8.79501 41.795 8.32181 42.1621 7.77173C42.8536 6.94371 44.1464 6.94371 44.8379 7.77173C45.205 8.32182 45.6782 8.79501 46.2283 9.16207C47.0563 9.85358 47.0563 11.1464 46.2283 11.8379ZM22.8379 7.77172C22.1464 6.94371 20.8536 6.94372 20.1621 7.77173C19.795 8.32181 19.3218 8.79501 18.7717 9.16207C17.9437 9.85358 17.9437 11.1464 18.7717 11.8379C19.3218 12.205 19.795 12.6782 20.1621 13.2283C20.8536 14.0563 22.1464 14.0563 22.8379 13.2283C23.205 12.6782 23.6782 12.205 24.2283 11.8379C25.0563 11.1464 25.0563 9.85358 24.2283 9.16207C23.6782 8.79501 23.205 8.3218 22.8379 7.77172ZM31.1621 7.77173C30.795 8.32181 30.3218 8.79502 29.7717 9.16208C28.9437 9.85358 28.9437 11.1464 29.7717 11.8379C30.3218 12.205 30.795 12.6782 31.1621 13.2283C31.8536 14.0563 33.1464 14.0563 33.8379 13.2283C34.205 12.6782 34.6782 12.205 35.2283 11.8379C36.0563 11.1464 36.0563 9.85358 35.2283 9.16207C34.6782 8.79501 34.205 8.32181 33.8379 7.77173C33.1464 6.94371 31.8536 6.94371 31.1621 7.77173ZM51.7717 9.16208C52.3218 8.79502 52.795 8.32181 53.1621 7.77173C53.8536 6.94371 55.1464 6.94371 55.8379 7.77173C56.205 8.32181 56.6782 8.79501 57.2283 9.16207C58.0563 9.85358 58.0563 11.1464 57.2283 11.8379C56.6782 12.205 56.205 12.6782 55.8379 13.2283C55.1464 14.0563 53.8536 14.0563 53.1621 13.2283C52.795 12.6782 52.3218 12.205 51.7717 11.8379C50.9437 11.1464 50.9437 9.85358 51.7717 9.16208ZM9.16207 29.7717C8.79501 30.3218 8.3218 30.795 7.77172 31.1621C6.94371 31.8536 6.94371 33.1464 7.77172 33.8379C8.3218 34.205 8.79501 34.6782 9.16207 35.2283C9.85358 36.0563 11.1464 36.0563 11.8379 35.2283C12.205 34.6782 12.6782 34.205 13.2283 33.8379C14.0563 33.1464 14.0563 31.8536 13.2283 31.1621C12.6782 30.795 12.205 30.3218 11.8379 29.7717C11.1464 28.9437 9.85358 28.9437 9.16207 29.7717ZM29.7717 31.1621C30.3218 30.795 30.795 30.3218 31.1621 29.7717C31.8536 28.9437 33.1464 28.9437 33.8379 29.7717C34.205 30.3218 34.6782 30.795 35.2283 31.1621C36.0563 31.8536 36.0563 33.1464 35.2283 33.8379C34.6782 34.205 34.205 34.6782 33.8379 35.2283C33.1464 36.0563 31.8536 36.0563 31.1621 35.2283C30.795 34.6782 30.3218 34.205 29.7717 33.8379C28.9437 33.1464 28.9437 31.8536 29.7717 31.1621ZM9.16207 51.7717C8.79501 52.3218 8.3218 52.795 7.77172 53.1621C6.94371 53.8536 6.94371 55.1464 7.77172 55.8379C8.3218 56.205 8.79501 56.6782 9.16207 57.2283C9.85358 58.0563 11.1464 58.0563 11.8379 57.2283C12.205 56.6782 12.6782 56.205 13.2283 55.8379C14.0563 55.1464 14.0563 53.8536 13.2283 53.1621C12.6782 52.795 12.205 52.3218 11.8379 51.7717C11.1464 50.9437 9.85358 50.9437 9.16207 51.7717ZM29.7717 53.1621C30.3218 52.795 30.795 52.3218 31.1621 51.7717C31.8536 50.9437 33.1464 50.9437 33.8379 51.7717C34.205 52.3218 34.6782 52.795 35.2283 53.1621C36.0563 53.8536 36.0563 55.1464 35.2283 55.8379C34.6782 56.205 34.205 56.6782 33.8379 57.2283C33.1464 58.0563 31.8536 58.0563 31.1621 57.2283C30.795 56.6782 30.3218 56.205 29.7717 55.8379C28.9437 55.1464 28.9437 53.8536 29.7717 53.1621ZM53.1621 51.7717C52.795 52.3218 52.3218 52.795 51.7717 53.1621C50.9437 53.8536 50.9437 55.1464 51.7717 55.8379C52.3218 56.205 52.795 56.6782 53.1621 57.2283C53.8536 58.0563 55.1464 58.0563 55.8379 57.2283C56.205 56.6782 56.6782 56.205 57.2283 55.8379C58.0563 55.1464 58.0563 53.8536 57.2283 53.1621C56.6782 52.795 56.205 52.3218 55.8379 51.7717C55.1464 50.9437 53.8536 50.9437 53.1621 51.7717ZM75.1621 7.77173C74.795 8.32181 74.3218 8.79502 73.7717 9.16208C72.9437 9.85358 72.9437 11.1464 73.7717 11.8379C74.3218 12.205 74.795 12.6782 75.1621 13.2283C75.8536 14.0563 77.1464 14.0563 77.8379 13.2283C78.205 12.6782 78.6782 12.205 79.2283 11.8379C80.0563 11.1464 80.0563 9.85358 79.2283 9.16207C78.6782 8.79501 78.205 8.32181 77.8379 7.77173C77.1464 6.94371 75.8536 6.94371 75.1621 7.77173ZM95.7717 9.16208C96.3218 8.79502 96.795 8.32181 97.1621 7.77173C97.8536 6.94371 99.1464 6.94371 99.8379 7.77173C100.205 8.32181 100.678 8.79501 101.228 9.16207C102.056 9.85358 102.056 11.1464 101.228 11.8379C100.678 12.205 100.205 12.6782 99.8379 13.2283C99.1464 14.0563 97.8536 14.0563 97.1621 13.2283C96.795 12.6782 96.3218 12.205 95.7717 11.8379C94.9437 11.1464 94.9437 9.85358 95.7717 9.16208ZM119.162 7.77173C118.795 8.32181 118.322 8.79502 117.772 9.16208C116.944 9.85358 116.944 11.1464 117.772 11.8379C118.322 12.205 118.795 12.6782 119.162 13.2283C119.854 14.0563 121.146 14.0563 121.838 13.2283C122.205 12.6782 122.678 12.205 123.228 11.8379C124.056 11.1464 124.056 9.85358 123.228 9.16207C122.678 8.79501 122.205 8.32181 121.838 7.77173C121.146 6.94371 119.854 6.94371 119.162 7.77173ZM73.7717 31.1621C74.3218 30.795 74.795 30.3218 75.1621 29.7717C75.8536 28.9437 77.1464 28.9437 77.8379 29.7717C78.205 30.3218 78.6782 30.795 79.2283 31.1621C80.0563 31.8536 80.0563 33.1464 79.2283 33.8379C78.6782 34.205 78.205 34.6782 77.8379 35.2283C77.1464 36.0563 75.8536 36.0563 75.1621 35.2283C74.795 34.6782 74.3218 34.205 73.7717 33.8379C72.9437 33.1464 72.9437 31.8536 73.7717 31.1621ZM97.1621 29.7717C96.795 30.3218 96.3218 30.795 95.7717 31.1621C94.9437 31.8536 94.9437 33.1464 95.7717 33.8379C96.3218 34.205 96.795 34.6782 97.1621 35.2283C97.8536 36.0563 99.1464 36.0563 99.8379 35.2283C100.205 34.6782 100.678 34.205 101.228 33.8379C102.056 33.1464 102.056 31.8536 101.228 31.1621C100.678 30.795 100.205 30.3218 99.8379 29.7717C99.1464 28.9437 97.8536 28.9437 97.1621 29.7717ZM117.772 31.1621C118.322 30.795 118.795 30.3218 119.162 29.7717C119.854 28.9437 121.146 28.9437 121.838 29.7717C122.205 30.3218 122.678 30.795 123.228 31.1621C124.056 31.8536 124.056 33.1464 123.228 33.8379C122.678 34.205 122.205 34.6782 121.838 35.2283C121.146 36.0563 119.854 36.0563 119.162 35.2283C118.795 34.6782 118.322 34.205 117.772 33.8379C116.944 33.1464 116.944 31.8536 117.772 31.1621ZM75.1621 51.7717C74.795 52.3218 74.3218 52.795 73.7717 53.1621C72.9437 53.8536 72.9437 55.1464 73.7717 55.8379C74.3218 56.205 74.795 56.6782 75.1621 57.2283C75.8536 58.0563 77.1464 58.0563 77.8379 57.2283C78.205 56.6782 78.6782 56.205 79.2283 55.8379C80.0563 55.1464 80.0563 53.8536 79.2283 53.1621C78.6782 52.795 78.205 52.3218 77.8379 51.7717C77.1464 50.9437 75.8536 50.9437 75.1621 51.7717ZM95.7717 53.1621C96.3218 52.795 96.795 52.3218 97.1621 51.7717C97.8536 50.9437 99.1464 50.9437 99.8379 51.7717C100.205 52.3218 100.678 52.795 101.228 53.1621C102.056 53.8536 102.056 55.1464 101.228 55.8379C100.678 56.205 100.205 56.6782 99.8379 57.2283C99.1464 58.0563 97.8536 58.0563 97.1621 57.2283C96.795 56.6782 96.3218 56.205 95.7717 55.8379C94.9437 55.1464 94.9437 53.8536 95.7717 53.1621ZM119.162 51.7717C118.795 52.3218 118.322 52.795 117.772 53.1621C116.944 53.8536 116.944 55.1464 117.772 55.8379C118.322 56.205 118.795 56.6782 119.162 57.2283C119.854 58.0563 121.146 58.0563 121.838 57.2283C122.205 56.6782 122.678 56.205 123.228 55.8379C124.056 55.1464 124.056 53.8536 123.228 53.1621C122.678 52.795 122.205 52.3218 121.838 51.7717C121.146 50.9437 119.854 50.9437 119.162 51.7717ZM53.1621 29.7717C52.795 30.3218 52.3218 30.795 51.7717 31.1621C50.9437 31.8536 50.9437 33.1464 51.7717 33.8379C52.3218 34.205 52.795 34.6782 53.1621 35.2283C53.8536 36.0563 55.1464 36.0563 55.8379 35.2283C56.205 34.6782 56.6782 34.205 57.2283 33.8379C58.0563 33.1464 58.0563 31.8536 57.2283 31.1621C56.6782 30.795 56.205 30.3218 55.8379 29.7717C55.1464 28.9437 53.8536 28.9437 53.1621 29.7717Z" fill="#14C1F9"/>
</svg>
