<svg width="18" height="18" viewBox="0 0 18 18" fill="none" xmlns="http://www.w3.org/2000/svg">
<path fill-rule="evenodd" clip-rule="evenodd" d="M3.41451 0.940811C2.03379 0.940811 0.914505 2.0601 0.914505 3.44081V11.9959C0.914505 13.3766 2.03379 14.4959 3.4145 14.4959H5.46997V16.4401C5.46997 17.2686 6.14154 17.9401 6.96997 17.9401H16.4141C17.2425 17.9401 17.9141 17.2686 17.9141 16.4401V6.99622C17.9141 6.1678 17.2425 5.49622 16.4141 5.49622H14.4698V3.44081C14.4698 2.0601 13.3505 0.940811 11.9698 0.940811H3.41451ZM12.4698 5.49622V3.44081C12.4698 3.16467 12.2459 2.94081 11.9698 2.94081H3.41451C3.13836 2.94081 2.91451 3.16467 2.91451 3.44081V11.9959C2.91451 12.272 3.13836 12.4959 3.4145 12.4959H5.46997V6.99622C5.46997 6.1678 6.14154 5.49622 6.96997 5.49622H12.4698Z" fill="#14C1F9"/>
</svg>
