<svg width="62" height="72" viewBox="0 0 62 72" fill="none" xmlns="http://www.w3.org/2000/svg">
<path fill-rule="evenodd" clip-rule="evenodd" d="M31 34C37.6274 34 43 28.6274 43 22C43 15.3726 37.6274 10 31 10C24.3726 10 19 15.3726 19 22C19 28.6274 24.3726 34 31 34ZM52 53.127V51.5187C52 44.0599 47.9893 37.1773 41.5 33.5C35.3055 38.2491 26.6945 38.2491 20.5 33.5C14.0107 37.1773 10 44.0599 10 51.5187V53.16C10 53.3438 10.0819 53.5182 10.223 53.6359C22.2442 63.6535 39.7307 63.6744 51.7518 53.6568C51.9091 53.5258 52 53.3316 52 53.127Z" fill="#14C1F9"/>
</svg>
