<svg width="4" height="4" viewBox="0 0 4 4" fill="none" xmlns="http://www.w3.org/2000/svg">
    <path fill-rule="evenodd" clip-rule="evenodd" d="M2 4C3.10457 4 4 3.10457 4 2C4 0.895431 3.10457 0 2 0C0.895431 0 0 0.895431 0 2C0 3.10457 0.895431 4 2 4ZM2.71216 1.28788C2.82931 1.40504 2.82931 1.59499 2.71216 1.71214L2.4242 2.0001L2.71214 2.28805C2.8293 2.40521 2.8293 2.59516 2.71214 2.71232C2.59499 2.82947 2.40504 2.82947 2.28788 2.71232L1.99993 2.42437L1.71216 2.71214C1.595 2.8293 1.40505 2.8293 1.28789 2.71214C1.17074 2.59499 1.17074 2.40504 1.28789 2.28788L1.57567 2.0001L1.28788 1.71232C1.17072 1.59516 1.17072 1.40521 1.28788 1.28805C1.40504 1.17089 1.59499 1.17089 1.71214 1.28805L1.99993 1.57584L2.28789 1.28788C2.40505 1.17072 2.595 1.17072 2.71216 1.28788Z" fill="black"/>
    </svg>
    