<svg width="14" height="13" viewBox="0 0 14 13" fill="none" xmlns="http://www.w3.org/2000/svg">
<path d="M9.5 3.50002V3.00002C9.5 1.89545 8.60457 1.00002 7.5 1.00002H3C1.89543 1.00002 1 1.89545 1 3.00002V10C1 11.1046 1.89543 12 3 12H7.5C8.60457 12 9.5 11.1046 9.5 10V9.50002" stroke="#D1D1D1" stroke-width="2" stroke-linecap="round"/>
<path fill-rule="evenodd" clip-rule="evenodd" d="M5.79119 9.7054C6.42184 10.3361 7.5 9.88929 7.5 8.99759L7.5 7.5L12.5 7.5C13.0523 7.5 13.5 7.05228 13.5 6.5C13.5 5.94772 13.0523 5.5 12.5 5.5L7.5 5.5V4.00241C7.5 3.11077 6.42189 2.6639 5.79119 3.2946L3.3636 5.72218C3.35142 5.73437 3.33958 5.74676 3.32809 5.75936C3.12656 5.94231 3.00001 6.20637 3.00001 6.5C3.00001 6.79363 3.12656 7.0577 3.3281 7.24064C3.33959 7.25324 3.35142 7.26564 3.3636 7.27782L5.79119 9.7054Z" fill="#D1D1D1"/>
</svg>
