<svg width="14" height="13" viewBox="0 0 14 13" fill="none" xmlns="http://www.w3.org/2000/svg">
<path d="M7 4V3C7 1.89543 6.10457 1 5 1H3C1.89543 1 1 1.89543 1 3V10C1 11.1046 1.89543 12 3 12H5C6.10457 12 7 11.1046 7 10V9" stroke="#D1D1D1" stroke-linecap="round"/>
<path fill-rule="evenodd" clip-rule="evenodd" d="M3 6.5C3 5.94772 3.44772 5.5 4 5.5H12.5C13.0523 5.5 13.5 5.94772 13.5 6.5C13.5 7.05228 13.0523 7.5 12.5 7.5H4C3.44772 7.5 3 7.05228 3 6.5Z" fill="#D1D1D1"/>
<path d="M7 3.5V3C7 1.89543 6.10457 1 5 1H3C1.89543 1 1 1.89543 1 3V10C1 11.1046 1.89543 12 3 12H5C6.10457 12 7 11.1046 7 10V9.5" stroke="#D1D1D1" stroke-width="2" stroke-linecap="round"/>
<path fill-rule="evenodd" clip-rule="evenodd" d="M10.7071 3.29289C10.3166 2.90237 9.68343 2.90237 9.2929 3.29289C8.90238 3.68342 8.90238 4.31658 9.2929 4.70711L11.0858 6.5L9.2929 8.29289C8.90238 8.68342 8.90238 9.31658 9.2929 9.70711C9.68343 10.0976 10.3166 10.0976 10.7071 9.70711L13.2071 7.20711C13.5976 6.81658 13.5976 6.18342 13.2071 5.79289L10.7071 3.29289Z" fill="#D1D1D1"/>
</svg>
