<svg width="17" height="15" viewBox="0 0 17 15" fill="none" xmlns="http://www.w3.org/2000/svg">
<path fill-rule="evenodd" clip-rule="evenodd" d="M17 7.5C17 11.6421 13.1944 15 8.5 15C6.70303 15 5.0363 14.508 3.66341 13.6683L1.68331 14.6583C1.43943 14.7803 1.17251 14.54 1.26824 14.2847L2.00006 12.3332C0.752109 11.0279 0 9.34143 0 7.5C0 3.35786 3.80558 0 8.5 0C13.1944 0 17 3.35786 17 7.5ZM5 7.5C5 8.32843 4.32843 9 3.5 9C2.67157 9 2 8.32843 2 7.5C2 6.67157 2.67157 6 3.5 6C4.32843 6 5 6.67157 5 7.5ZM8.5 9C9.32843 9 10 8.32843 10 7.5C10 6.67157 9.32843 6 8.5 6C7.67157 6 7 6.67157 7 7.5C7 8.32843 7.67157 9 8.5 9ZM15 7.5C15 8.32843 14.3284 9 13.5 9C12.6716 9 12 8.32843 12 7.5C12 6.67157 12.6716 6 13.5 6C14.3284 6 15 6.67157 15 7.5Z" fill="#14C1F9"/>
</svg>
