<svg width="83" height="76" viewBox="0 0 83 76" fill="none" xmlns="http://www.w3.org/2000/svg">
<path d="M12.9012 23V7.853H8.74316L11.6592 3.83H16.9782V23H12.9012Z" fill="white"/>
<path d="M17.7 43.977V48H4.46999V46.623C4.46999 46.101 4.52399 45.597 4.63199 45.111C4.73999 44.607 4.86599 44.175 5.00999 43.815C5.15399 43.437 5.37899 43.05 5.68499 42.654C5.99099 42.258 6.25199 41.934 6.46799 41.682C6.68399 41.43 7.00799 41.133 7.43999 40.791C7.87199 40.431 8.20499 40.17 8.43899 40.008C8.67299 39.828 9.04199 39.567 9.54599 39.225C10.05 38.865 10.401 38.613 10.599 38.469C12.525 37.101 13.488 35.877 13.488 34.797C13.488 34.131 13.29 33.591 12.894 33.177C12.516 32.745 11.958 32.529 11.22 32.529C10.446 32.529 9.81599 32.763 9.32999 33.231C8.86199 33.699 8.62799 34.266 8.62799 34.932H4.55099C4.55099 33.06 5.18999 31.521 6.46799 30.315C7.76399 29.109 9.39299 28.506 11.355 28.506C13.083 28.506 14.55 29.037 15.756 30.099C16.962 31.143 17.565 32.61 17.565 34.5C17.565 35.598 17.376 36.579 16.998 37.443C16.62 38.307 16.179 39 15.675 39.522C15.171 40.044 14.487 40.629 13.623 41.277C13.587 41.295 13.227 41.529 12.543 41.979C11.877 42.411 11.364 42.78 11.004 43.086C10.644 43.392 10.383 43.689 10.221 43.977H17.7Z" fill="white"/>
<path d="M11.1472 74.297C9.22122 74.297 7.55622 73.721 6.15222 72.569C4.74822 71.399 4.01022 69.77 3.93822 67.682H7.98822C8.07822 68.546 8.40222 69.194 8.96022 69.626C9.51822 70.058 10.2472 70.274 11.1472 70.274C11.9392 70.274 12.5692 70.085 13.0372 69.707C13.5232 69.311 13.7752 68.798 13.7932 68.168C13.8112 67.484 13.5592 66.926 13.0372 66.494C12.5152 66.062 11.8222 65.846 10.9582 65.846H9.28422V62.579H10.7422C12.3802 62.579 13.2172 61.886 13.2532 60.5C13.2712 59.924 13.0732 59.456 12.6592 59.096C12.2452 58.718 11.7142 58.529 11.0662 58.529C10.2742 58.529 9.62622 58.763 9.12222 59.231C8.61822 59.699 8.37522 60.266 8.39322 60.932H4.31622C4.31622 58.988 4.99122 57.431 6.34122 56.261C7.70922 55.091 9.28422 54.506 11.0662 54.506C13.0282 54.506 14.5672 55.055 15.6832 56.153C16.7992 57.233 17.3572 58.565 17.3572 60.149C17.3572 61.013 17.1592 61.814 16.7632 62.552C16.3852 63.272 15.9172 63.848 15.3592 64.28C16.0792 64.64 16.6822 65.18 17.1682 65.9C17.6542 66.62 17.8972 67.493 17.8972 68.519C17.8972 70.211 17.2672 71.597 16.0072 72.677C14.7652 73.757 13.1452 74.297 11.1472 74.297Z" fill="white"/>
<rect x="24" y="62" width="59" height="8" fill="white"/>
<rect x="24" y="10" width="59" height="8" fill="white"/>
<rect x="24" y="36" width="59" height="8" fill="white"/>
</svg>
