<svg width="80" height="73" viewBox="0 0 80 73" fill="none" xmlns="http://www.w3.org/2000/svg">
<path d="M4.48234 15V3.78H1.40234L3.56234 0.799999H7.50234V15H4.48234Z" fill="black"/>
<path d="M6.18313 72.22C4.75646 72.22 3.52313 71.7933 2.48313 70.94C1.44313 70.0733 0.896458 68.8667 0.843125 67.32H3.84313C3.90979 67.96 4.14979 68.44 4.56313 68.76C4.97646 69.08 5.51646 69.24 6.18313 69.24C6.76979 69.24 7.23646 69.1 7.58313 68.82C7.94313 68.5267 8.12979 68.1467 8.14313 67.68C8.15646 67.1733 7.96979 66.76 7.58313 66.44C7.19646 66.12 6.68313 65.96 6.04313 65.96H4.80313V63.54H5.88313C7.09646 63.54 7.71646 63.0267 7.74313 62C7.75646 61.5733 7.60979 61.2267 7.30313 60.96C6.99646 60.68 6.60313 60.54 6.12313 60.54C5.53646 60.54 5.05646 60.7133 4.68313 61.06C4.30979 61.4067 4.12979 61.8267 4.14313 62.32H1.12313C1.12313 60.88 1.62313 59.7267 2.62313 58.86C3.63646 57.9933 4.80313 57.56 6.12313 57.56C7.57646 57.56 8.71646 57.9667 9.54313 58.78C10.3698 59.58 10.7831 60.5667 10.7831 61.74C10.7831 62.38 10.6365 62.9733 10.3431 63.52C10.0631 64.0533 9.71646 64.48 9.30313 64.8C9.83646 65.0667 10.2831 65.4667 10.6431 66C11.0031 66.5333 11.1831 67.18 11.1831 67.94C11.1831 69.1933 10.7165 70.22 9.78313 71.02C8.86313 71.82 7.66313 72.22 6.18313 72.22Z" fill="black"/>
<path d="M21 63H50.5H80V70H21V63Z" fill="black"/>
<rect x="21" y="5" width="59" height="8" fill="black"/>
<rect x="21" y="34" width="59" height="8" fill="black"/>
<path d="M11.037 42.02V45H1.23703V43.98C1.23703 43.5933 1.27703 43.22 1.35703 42.86C1.43703 42.4867 1.53036 42.1667 1.63703 41.9C1.7437 41.62 1.91036 41.3333 2.13703 41.04C2.3637 40.7467 2.55703 40.5067 2.71703 40.32C2.87703 40.1333 3.11703 39.9133 3.43703 39.66C3.75703 39.3933 4.0037 39.2 4.17703 39.08C4.35036 38.9467 4.6237 38.7533 4.99703 38.5C5.37037 38.2333 5.63036 38.0467 5.77703 37.94C7.2037 36.9267 7.91703 36.02 7.91703 35.22C7.91703 34.7267 7.77036 34.3267 7.47703 34.02C7.19703 33.7 6.7837 33.54 6.23703 33.54C5.6637 33.54 5.19703 33.7133 4.83703 34.06C4.49036 34.4067 4.31703 34.8267 4.31703 35.32H1.29703C1.29703 33.9333 1.77036 32.7933 2.71703 31.9C3.67703 31.0067 4.8837 30.56 6.33703 30.56C7.61703 30.56 8.7037 30.9533 9.59703 31.74C10.4904 32.5133 10.937 33.6 10.937 35C10.937 35.8133 10.797 36.54 10.517 37.18C10.237 37.82 9.91037 38.3333 9.53703 38.72C9.1637 39.1067 8.65703 39.54 8.01703 40.02C7.99036 40.0333 7.7237 40.2067 7.21703 40.54C6.7237 40.86 6.3437 41.1333 6.07703 41.36C5.81036 41.5867 5.61703 41.8067 5.49703 42.02H11.037Z" fill="black"/>
</svg>
