<svg width="79" height="80" viewBox="0 0 79 80" fill="none" xmlns="http://www.w3.org/2000/svg">
<path d="M10.1347 27V10.125H6.43573L8.32573 7.83H12.4567V27H10.1347Z" fill="black"/>
<path d="M13.6873 49.759V52H1.26734V51.082C1.26734 50.416 1.36634 49.786 1.56434 49.192C1.78034 48.58 2.01434 48.067 2.26634 47.653C2.51834 47.239 2.91434 46.78 3.45434 46.276C3.99434 45.754 4.41734 45.376 4.72334 45.142C5.02934 44.89 5.54234 44.512 6.26234 44.008C6.98234 43.486 7.45934 43.144 7.69334 42.982C8.97134 42.046 9.85334 41.263 10.3393 40.633C10.8433 39.985 11.0953 39.139 11.0953 38.095C11.0953 37.087 10.7713 36.286 10.1233 35.692C9.47534 35.08 8.62934 34.774 7.58534 34.774C6.48734 34.774 5.55134 35.107 4.77734 35.773C4.00334 36.439 3.61634 37.366 3.61634 38.554H1.24034C1.24034 36.754 1.83434 35.296 3.02234 34.18C4.22834 33.064 5.74034 32.506 7.55834 32.506C9.25034 32.506 10.6543 32.992 11.7703 33.964C12.9043 34.936 13.4713 36.322 13.4713 38.122C13.4713 39.49 13.1383 40.66 12.4723 41.632C11.8063 42.586 10.6633 43.648 9.04334 44.818C8.73734 45.034 8.30534 45.34 7.74734 45.736C7.18934 46.114 6.75734 46.42 6.45134 46.654C6.14534 46.888 5.80334 47.176 5.42534 47.518C5.06534 47.842 4.77734 48.193 4.56134 48.571C4.36334 48.931 4.21934 49.327 4.12934 49.759H13.6873Z" fill="black"/>
<path d="M7.35689 78.27C5.44889 78.27 3.82889 77.694 2.49689 76.542C1.18289 75.372 0.525891 73.914 0.525891 72.168H2.87489C2.94689 73.302 3.40589 74.229 4.25189 74.949C5.09789 75.651 6.13289 76.002 7.35689 76.002C8.47289 76.002 9.39989 75.696 10.1379 75.084C10.8759 74.472 11.2449 73.626 11.2449 72.546C11.2449 71.394 10.8669 70.53 10.1109 69.954C9.37289 69.378 8.35589 69.09 7.05989 69.09H5.62889V66.957H7.16789C8.19389 66.957 9.03089 66.669 9.67889 66.093C10.3449 65.517 10.6869 64.77 10.7049 63.852C10.7049 62.952 10.3719 62.214 9.70589 61.638C9.05789 61.062 8.23889 60.774 7.24889 60.774C6.11489 60.774 5.16089 61.107 4.38689 61.773C3.61289 62.439 3.22589 63.366 3.22589 64.554H0.849891C0.849891 62.718 1.46189 61.251 2.68589 60.153C3.90989 59.055 5.43089 58.506 7.24889 58.506C8.92289 58.506 10.3089 58.992 11.4069 59.964C12.5229 60.918 13.0809 62.187 13.0809 63.771C13.0629 64.689 12.8109 65.517 12.3249 66.255C11.8569 66.993 11.2449 67.56 10.4889 67.956C11.4609 68.352 12.2259 68.964 12.7839 69.792C13.3419 70.602 13.6209 71.547 13.6209 72.627C13.6209 74.301 13.0359 75.66 11.8659 76.704C10.6959 77.748 9.19289 78.27 7.35689 78.27Z" fill="black"/>
<rect x="20" y="66" width="59" height="8" fill="black"/>
<rect x="20" y="14" width="59" height="8" fill="black"/>
<rect x="20" y="40" width="59" height="8" fill="black"/>
</svg>
