<svg width="16" height="16" viewBox="0 0 16 16" fill="none" xmlns="http://www.w3.org/2000/svg">
<path fill-rule="evenodd" clip-rule="evenodd" d="M1 2C0.447715 2 0 2.44772 0 3V15C0 15.5523 0.447716 16 1 16H13C13.5523 16 14 15.5523 14 15V3C14 2.44772 13.5523 2 13 2H1ZM5 4.5C5 5.32843 4.32843 6 3.5 6C2.67157 6 2 5.32843 2 4.5C2 3.67157 2.67157 3 3.5 3C4.32843 3 5 3.67157 5 4.5ZM7.99944 7.57231L5.5 11.5L4.93316 10.7442C4.49644 10.1619 3.6038 10.2264 3.25526 10.8654L1 15H13L9.75691 7.70305C9.43293 6.97409 8.42771 6.89931 7.99944 7.57231ZM14 4.95C13.8384 4.98279 13.6712 5 13.5 5C12.1193 5 11 3.88071 11 2.5C11 2.32877 11.0172 2.16156 11.05 2H13C13.5523 2 14 2.44771 14 3V4.95Z" fill="black"/>
<path fill-rule="evenodd" clip-rule="evenodd" d="M13.5 4.5C14.6046 4.5 15.5 3.60457 15.5 2.5C15.5 1.39543 14.6046 0.5 13.5 0.5C12.3954 0.5 11.5 1.39543 11.5 2.5C11.5 3.60457 12.3954 4.5 13.5 4.5ZM13.5 0.75C13.5355 0.75 13.5693 0.757406 13.5999 0.770759C13.6247 0.781546 13.6481 0.796537 13.669 0.815732L13.6776 0.824087L14.6768 1.82323C14.7744 1.92086 14.7744 2.07915 14.6768 2.17678C14.5791 2.27441 14.4209 2.27441 14.3232 2.17678L13.75 1.60356V4C13.75 4.13807 13.6381 4.25 13.5 4.25C13.3619 4.25 13.25 4.13807 13.25 4V1.60356L12.6768 2.17678C12.5791 2.27441 12.4209 2.27441 12.3232 2.17678C12.2256 2.07915 12.2256 1.92086 12.3232 1.82323L13.3224 0.82402L13.331 0.815732C13.352 0.796476 13.3755 0.78145 13.4003 0.770656C13.4309 0.757368 13.4646 0.75 13.5 0.75Z" fill="black"/>
</svg>
