<svg width="6" height="6" viewBox="0 0 6 6" fill="none" xmlns="http://www.w3.org/2000/svg">
<path fill-rule="evenodd" clip-rule="evenodd" d="M4 0.3C4 0.134315 3.86569 0 3.7 0H2.3C2.13431 0 2 0.134315 2 0.3V1.70003C2 1.86572 1.86569 2.00003 1.7 2.00003H0.299996C0.134311 2.00003 -3.8147e-06 2.13435 -3.8147e-06 2.30003V3.70003C-3.8147e-06 3.86572 0.134311 4.00003 0.299996 4.00003H1.7C1.86569 4.00003 2 4.13435 2 4.30003V5.7C2 5.86569 2.13431 6 2.3 6H3.7C3.86569 6 4 5.86569 4 5.7V4.30003C4 4.13435 4.13431 4.00003 4.3 4.00003H5.7C5.86568 4.00003 6 3.86572 6 3.70003V2.30003C6 2.13435 5.86568 2.00003 5.7 2.00003H4.3C4.13431 2.00003 4 1.86572 4 1.70003V0.3Z" fill="white"/>
</svg>
