<svg width="12" height="12" viewBox="0 0 12 12" fill="none" xmlns="http://www.w3.org/2000/svg">
<path fill-rule="evenodd" clip-rule="evenodd" d="M8.00002 0.5C8.00002 0.223858 7.77616 0 7.50002 0L4.50002 0C4.22387 0 4.00002 0.223858 4.00002 0.5V3.5C4.00002 3.77614 3.77616 4 3.50002 4H0.5C0.223858 4 0 4.22386 0 4.5L0 7.5C0 7.77614 0.223858 8 0.5 8H3.50002C3.77616 8 4.00002 8.22386 4.00002 8.5V11.5C4.00002 11.7761 4.22387 12 4.50002 12H7.50002C7.77616 12 8.00002 11.7761 8.00002 11.5V8.5C8.00002 8.22386 8.22387 8 8.50002 8H11.5C11.7761 8 12 7.77614 12 7.5V4.5C12 4.22386 11.7761 4 11.5 4H8.50002C8.22387 4 8.00002 3.77614 8.00002 3.5V0.5Z" fill="#D1D1D1"/>
</svg>
