<svg width="12" height="12" viewBox="0 0 12 12" fill="none" xmlns="http://www.w3.org/2000/svg">
<path fill-rule="evenodd" clip-rule="evenodd" d="M8 0.500122C8 0.22398 7.77614 0.00012207 7.5 0.00012207L4.5 0.00012207C4.22386 0.00012207 4 0.22398 4 0.500122V3.50012C4 3.77626 3.77614 4.00012 3.5 4.00012H0.499985C0.223842 4.00012 -1.52588e-05 4.22398 -1.52588e-05 4.50012L-1.52588e-05 7.50012C-1.52588e-05 7.77627 0.223842 8.00012 0.499985 8.00012H3.5C3.77614 8.00012 4 8.22398 4 8.50012V11.5001C4 11.7763 4.22386 12.0001 4.5 12.0001H7.5C7.77614 12.0001 8 11.7763 8 11.5001V8.50012C8 8.22398 8.22386 8.00012 8.5 8.00012H11.5C11.7761 8.00012 12 7.77627 12 7.50012V4.50012C12 4.22398 11.7761 4.00012 11.5 4.00012H8.5C8.22386 4.00012 8 3.77626 8 3.50012V0.500122Z" fill="#14C1F9"/>
</svg>
