<svg width="12" height="12" viewBox="0 0 12 12" fill="none" xmlns="http://www.w3.org/2000/svg">
<path fill-rule="evenodd" clip-rule="evenodd" d="M5 0.3C5 0.134315 5.13431 0 5.3 0H6.7C6.86569 0 7 0.134315 7 0.3V1.89346C7 2.03035 7.09307 2.14873 7.22341 2.19056C7.77232 2.3667 8.26955 2.65818 8.68659 3.03648C8.78791 3.12839 8.93686 3.14969 9.05533 3.0813L10.4403 2.28167C10.5838 2.19883 10.7673 2.24799 10.8501 2.39147L11.5501 3.6039C11.633 3.74739 11.5838 3.93087 11.4403 4.01371L10.0562 4.81287C9.93773 4.88124 9.88171 5.02082 9.91048 5.15451C9.96913 5.42706 10 5.70992 10 6C10 6.29009 9.96913 6.57297 9.91047 6.84553C9.8817 6.97922 9.93772 7.11881 10.0561 7.18718L11.4377 7.98484C11.5812 8.06768 11.6304 8.25116 11.5475 8.39465L10.8475 9.60709C10.7647 9.75058 10.5812 9.79974 10.4377 9.7169L9.0553 8.91875C8.93683 8.85035 8.78788 8.87166 8.68656 8.96356C8.26953 9.34184 7.77229 9.63331 7.22341 9.80944C7.09307 9.85127 7 9.96966 7 10.1065V11.7C7 11.8657 6.86569 12 6.7 12H5.3C5.13431 12 5 11.8657 5 11.7V10.1065C5 9.96965 4.90693 9.85127 4.77659 9.80944C4.22768 9.6333 3.73044 9.34181 3.3134 8.9635C3.21208 8.8716 3.06312 8.85029 2.94466 8.91869L1.56668 9.71427C1.42319 9.79711 1.23971 9.74795 1.15687 9.60446L0.456869 8.39203C0.374027 8.24854 0.423189 8.06506 0.566678 7.98222L1.94384 7.18712C2.06227 7.11874 2.11829 6.97916 2.08952 6.84547C2.03087 6.57293 2 6.29007 2 6C2 5.70994 2.03087 5.4271 2.08951 5.15458C2.11828 5.0209 2.06226 4.88132 1.94384 4.81295L0.564783 4.01675C0.421296 3.9339 0.372134 3.75043 0.454976 3.60694L1.15498 2.3945C1.23782 2.25101 1.4213 2.20185 1.56479 2.28469L2.94462 3.08134C3.06309 3.14974 3.21205 3.12843 3.31337 3.03652C3.73042 2.65821 4.22767 2.36671 4.77659 2.19056C4.90693 2.14873 5 2.03034 5 1.89346V0.3ZM6 7.5C6.82843 7.5 7.5 6.82843 7.5 6C7.5 5.17157 6.82843 4.5 6 4.5C5.17157 4.5 4.5 5.17157 4.5 6C4.5 6.82843 5.17157 7.5 6 7.5Z" fill="#D1D1D1"/>
</svg>