<svg width="14" height="11" viewBox="0 0 14 11" fill="none" xmlns="http://www.w3.org/2000/svg">
<path d="M1.21641 5.798L4.34841 0.830002H6.67041L4.67241 5.015C5.15841 5.195 5.57241 5.528 5.91441 6.014C6.25641 6.5 6.42741 7.049 6.42741 7.661C6.42741 8.453 6.13941 9.137 5.56341 9.713C5.00541 10.271 4.33041 10.55 3.53841 10.55C2.74641 10.55 2.06241 10.271 1.48641 9.713C0.92841 9.137 0.64941 8.453 0.64941 7.661C0.64941 7.013 0.83841 6.392 1.21641 5.798ZM7.75041 5.798L10.8824 0.830002H13.2044L11.2064 5.015C11.6924 5.195 12.1064 5.528 12.4484 6.014C12.7904 6.5 12.9614 7.049 12.9614 7.661C12.9614 8.453 12.6734 9.137 12.0974 9.713C11.5394 10.271 10.8644 10.55 10.0724 10.55C9.28041 10.55 8.59641 10.271 8.02041 9.713C7.46241 9.137 7.18341 8.453 7.18341 7.661C7.18341 7.013 7.37241 6.392 7.75041 5.798Z" fill="black"/>
</svg>
