<svg width="14" height="15" viewBox="0 0 14 15" fill="none" xmlns="http://www.w3.org/2000/svg">
<path d="M1.128 12V3.48H2.244V7.116H6.912V3.48H8.028V12H6.912V8.16H2.244V12H1.128ZM12.4643 12.936C12.1283 13.272 11.7003 13.44 11.1803 13.44C10.6603 13.44 10.2323 13.272 9.89634 12.936C9.56034 12.6 9.39234 12.192 9.39234 11.712C9.39234 11.456 9.43634 11.232 9.52434 11.04C9.62034 10.848 9.77634 10.616 9.99234 10.344L11.6843 8.184H12.7283L11.2883 10.02H11.3483C11.7723 10.02 12.1483 10.18 12.4763 10.5C12.8043 10.812 12.9683 11.208 12.9683 11.688C12.9683 12.184 12.8003 12.6 12.4643 12.936ZM10.5083 12.36C10.6923 12.544 10.9163 12.636 11.1803 12.636C11.4443 12.636 11.6643 12.544 11.8403 12.36C12.0243 12.184 12.1163 11.964 12.1163 11.7C12.1163 11.436 12.0243 11.212 11.8403 11.028C11.6643 10.844 11.4443 10.752 11.1803 10.752C10.9163 10.752 10.6923 10.844 10.5083 11.028C10.3323 11.212 10.2443 11.436 10.2443 11.7C10.2443 11.964 10.3323 12.184 10.5083 12.36Z" fill="black"/>
</svg>
