<svg width="18" height="15" viewBox="0 0 18 15" fill="none" xmlns="http://www.w3.org/2000/svg">
<path d="M0.948 12V3.48H2.688V6.876H6.384V3.48H8.124V12H6.384V8.532H2.688V12H0.948ZM12.9703 12.216V13.368H9.37031V12.984C9.37031 12.84 9.38631 12.7 9.41831 12.564C9.45031 12.428 9.48231 12.308 9.51431 12.204C9.54631 12.108 9.60631 12.004 9.69431 11.892C9.78231 11.78 9.85031 11.696 9.89831 11.64C9.94631 11.576 10.0343 11.492 10.1623 11.388C10.2983 11.276 10.3863 11.204 10.4263 11.172C10.4663 11.14 10.5663 11.072 10.7263 10.968C10.8863 10.856 10.9823 10.788 11.0143 10.764C11.5183 10.436 11.7703 10.108 11.7703 9.78C11.7703 9.628 11.7223 9.504 11.6263 9.408C11.5303 9.304 11.3943 9.252 11.2183 9.252C11.0183 9.252 10.8583 9.312 10.7383 9.432C10.6183 9.552 10.5623 9.692 10.5703 9.852H9.39431C9.39431 9.348 9.57031 8.932 9.92231 8.604C10.2823 8.268 10.7263 8.1 11.2543 8.1C11.7183 8.1 12.1143 8.244 12.4423 8.532C12.7783 8.812 12.9463 9.212 12.9463 9.732C12.9463 10.172 12.8543 10.532 12.6703 10.812C12.4863 11.092 12.2303 11.344 11.9023 11.568C11.8863 11.576 11.7983 11.628 11.6383 11.724C11.4863 11.82 11.3583 11.908 11.2543 11.988C11.1503 12.068 11.0783 12.144 11.0383 12.216H12.9703Z" fill="white"/>
</svg>
