<svg width="18" height="15" viewBox="0 0 18 15" fill="none" xmlns="http://www.w3.org/2000/svg">
<path d="M0.948 12V3.48H2.688V6.876H6.384V3.48H8.124V12H6.384V8.532H2.688V12H0.948ZM11.2423 13.452C10.7223 13.452 10.2703 13.3 9.88631 12.996C9.51031 12.692 9.31431 12.3 9.29831 11.82H10.4983C10.5943 12.14 10.8303 12.3 11.2063 12.3C11.3903 12.3 11.5423 12.236 11.6623 12.108C11.7903 11.98 11.8543 11.82 11.8543 11.628C11.8543 11.444 11.7903 11.292 11.6623 11.172C11.5343 11.044 11.3783 10.98 11.1943 10.98C10.8263 10.98 10.5943 11.16 10.4983 11.52L9.45431 11.208L10.0183 8.184H12.6223V9.324H10.9303L10.7863 10.056C10.9783 9.968 11.1903 9.924 11.4223 9.924C11.9103 9.924 12.2983 10.088 12.5863 10.416C12.8743 10.744 13.0183 11.172 13.0183 11.7C13.0183 12.212 12.8543 12.632 12.5263 12.96C12.1983 13.288 11.7703 13.452 11.2423 13.452Z" fill="white"/>
</svg>
