<svg width="14" height="15" viewBox="0 0 14 15" fill="none" xmlns="http://www.w3.org/2000/svg">
<path d="M1.128 12V3.48H2.244V7.116H6.912V3.48H8.028V12H6.912V8.16H2.244V12H1.128ZM12.9803 12.552V13.368H9.53634V13.068C9.53634 12.932 9.55234 12.796 9.58434 12.66C9.61634 12.532 9.64834 12.42 9.68034 12.324C9.72034 12.228 9.78434 12.124 9.87234 12.012C9.96834 11.9 10.0403 11.812 10.0883 11.748C10.1363 11.684 10.2243 11.6 10.3523 11.496C10.4883 11.392 10.5803 11.324 10.6283 11.292C10.6763 11.252 10.7803 11.18 10.9403 11.076C11.1003 10.964 11.1963 10.896 11.2283 10.872C11.5323 10.648 11.7523 10.452 11.8883 10.284C12.0243 10.116 12.0923 9.916 12.0923 9.684C12.0923 9.46 12.0163 9.28 11.8643 9.144C11.7203 9 11.5283 8.928 11.2883 8.928C11.0243 8.928 10.8083 9.008 10.6403 9.168C10.4723 9.32 10.3883 9.524 10.3883 9.78H9.53634C9.53634 9.284 9.70434 8.88 10.0403 8.568C10.3763 8.256 10.7963 8.1 11.3003 8.1C11.7563 8.1 12.1403 8.236 12.4523 8.508C12.7723 8.78 12.9323 9.164 12.9323 9.66C12.9323 10.052 12.8443 10.38 12.6683 10.644C12.4923 10.908 12.2043 11.188 11.8043 11.484C11.7563 11.516 11.6443 11.592 11.4683 11.712C11.2923 11.832 11.1643 11.924 11.0843 11.988C11.0123 12.044 10.9283 12.124 10.8323 12.228C10.7363 12.34 10.6723 12.448 10.6403 12.552H12.9803Z" fill="black"/>
</svg>
