<svg width="18" height="15" viewBox="0 0 18 15" fill="none" xmlns="http://www.w3.org/2000/svg">
<path d="M0.948 12V3.48H2.688V6.876H6.384V3.48H8.124V12H6.384V8.532H2.688V12H0.948ZM11.2903 13.452C10.7703 13.452 10.3143 13.292 9.92231 12.972C9.53831 12.66 9.33831 12.216 9.32231 11.64H10.4863C10.5343 12.08 10.8023 12.3 11.2903 12.3C11.4983 12.3 11.6623 12.248 11.7823 12.144C11.9023 12.048 11.9623 11.92 11.9623 11.76C11.9623 11.592 11.8943 11.456 11.7583 11.352C11.6303 11.248 11.4583 11.196 11.2423 11.196H10.7743V10.272H11.1703C11.5943 10.272 11.8063 10.096 11.8063 9.744C11.8063 9.6 11.7543 9.484 11.6503 9.396C11.5463 9.3 11.4143 9.252 11.2543 9.252C11.0623 9.252 10.9023 9.312 10.7743 9.432C10.6543 9.544 10.5943 9.684 10.5943 9.852H9.43031C9.43031 9.324 9.61431 8.9 9.98231 8.58C10.3583 8.26 10.7863 8.1 11.2663 8.1C11.8103 8.1 12.2303 8.248 12.5263 8.544C12.8303 8.84 12.9823 9.204 12.9823 9.636C12.9823 10.1 12.8103 10.472 12.4663 10.752C12.6503 10.84 12.8063 10.984 12.9343 11.184C13.0623 11.376 13.1263 11.608 13.1263 11.88C13.1263 12.336 12.9543 12.712 12.6103 13.008C12.2743 13.304 11.8343 13.452 11.2903 13.452Z" fill="white"/>
</svg>
