<svg width="18" height="15" viewBox="0 0 18 15" fill="none" xmlns="http://www.w3.org/2000/svg">
<path d="M0.948 12V3.48H2.688V6.876H6.384V3.48H8.124V12H6.384V8.532H2.688V12H0.948ZM11.0863 13.452C10.5343 13.452 10.0903 13.284 9.75431 12.948C9.41831 12.612 9.25031 12.204 9.25031 11.724C9.25031 11.444 9.29031 11.212 9.37031 11.028C9.45831 10.844 9.62231 10.576 9.86231 10.224L11.2423 8.184H12.6703L11.4463 9.996C11.8223 10.028 12.1583 10.192 12.4543 10.488C12.7583 10.776 12.9103 11.16 12.9103 11.64C12.9103 12.16 12.7463 12.592 12.4183 12.936C12.0903 13.28 11.6463 13.452 11.0863 13.452ZM11.0863 12.324C11.2703 12.324 11.4223 12.256 11.5423 12.12C11.6703 11.992 11.7343 11.836 11.7343 11.652C11.7343 11.468 11.6703 11.312 11.5423 11.184C11.4223 11.048 11.2703 10.98 11.0863 10.98C10.8783 10.98 10.7143 11.044 10.5943 11.172C10.4743 11.3 10.4143 11.46 10.4143 11.652C10.4143 11.844 10.4743 12.004 10.5943 12.132C10.7143 12.26 10.8783 12.324 11.0863 12.324Z" fill="white"/>
</svg>
