<svg width="14" height="15" viewBox="0 0 14 15" fill="none" xmlns="http://www.w3.org/2000/svg">
<path d="M1.128 12V3.48H2.244V7.116H6.912V3.48H8.028V12H6.912V8.16H2.244V12H1.128ZM12.6443 13.008C12.3243 13.296 11.9043 13.44 11.3843 13.44C10.8643 13.44 10.4203 13.284 10.0523 12.972C9.68434 12.66 9.50034 12.248 9.50034 11.736H10.3283C10.3523 12.016 10.4603 12.232 10.6523 12.384C10.8523 12.544 11.1003 12.624 11.3963 12.624C11.6603 12.624 11.8723 12.556 12.0323 12.42C12.2003 12.284 12.2843 12.096 12.2843 11.856C12.2843 11.6 12.1963 11.404 12.0203 11.268C11.8443 11.124 11.6083 11.052 11.3123 11.052H10.9043V10.332H11.3123C11.5683 10.332 11.7683 10.268 11.9123 10.14C12.0563 10.012 12.1323 9.84 12.1403 9.624C12.1483 9.416 12.0763 9.248 11.9243 9.12C11.7723 8.992 11.5843 8.928 11.3603 8.928C11.0963 8.928 10.8763 9.008 10.7003 9.168C10.5243 9.32 10.4363 9.524 10.4363 9.78H9.59634C9.59634 9.268 9.76834 8.86 10.1123 8.556C10.4563 8.252 10.8723 8.1 11.3603 8.1C11.8563 8.1 12.2523 8.236 12.5483 8.508C12.8443 8.78 12.9923 9.136 12.9923 9.576C12.9843 10.072 12.7763 10.444 12.3683 10.692C12.8803 10.916 13.1363 11.32 13.1363 11.904C13.1363 12.36 12.9723 12.728 12.6443 13.008Z" fill="black"/>
</svg>
