<svg width="14" height="15" viewBox="0 0 14 15" fill="none" xmlns="http://www.w3.org/2000/svg">
<path d="M1.128 12V3.48H2.244V7.116H6.912V3.48H8.028V12H6.912V8.16H2.244V12H1.128ZM11.2523 13.44C10.7723 13.44 10.3523 13.292 9.99234 12.996C9.64034 12.708 9.45634 12.348 9.44034 11.916H10.2923C10.3483 12.124 10.4603 12.292 10.6283 12.42C10.8043 12.556 11.0163 12.624 11.2643 12.624C11.5283 12.624 11.7443 12.532 11.9123 12.348C12.0883 12.172 12.1763 11.952 12.1763 11.688C12.1763 11.424 12.0883 11.204 11.9123 11.028C11.7443 10.844 11.5283 10.752 11.2643 10.752C10.8403 10.752 10.5443 10.928 10.3763 11.28L9.62034 11.052L10.1603 8.184H12.6563V9H10.8323L10.5923 10.188C10.7923 10.052 11.0603 9.984 11.3963 9.984C11.8763 9.984 12.2643 10.148 12.5603 10.476C12.8643 10.796 13.0163 11.204 13.0163 11.7C13.0163 12.22 12.8523 12.64 12.5243 12.96C12.2043 13.28 11.7803 13.44 11.2523 13.44Z" fill="black"/>
</svg>
